<svg xmlns="http://www.w3.org/2000/svg" viewbox="0 0 93 32" class="logo">
  <path d="M81.97 0H93.8v6.4h-4.74v6.07h4.43v6.1h-4.44v7.03h5.2V32h-12.3V0"/>
  <path d="M14.98 9.94H8.66V7.66c0-1.06-.08-1.74-.24-2.03-.16-.3-.43-.43-.8-.43-.42 0-.73.2-.95.6-.2.38-.3.97-.3 1.77 0 1.02.1 1.8.35 2.3.23.53.87 1.16 1.92 1.9 3.03 2.1 4.94 3.83 5.72 5.2.8 1.34 1.18 3.52 1.18 6.53 0 2.2-.22 3.8-.66 4.84-.43 1.04-1.27 1.9-2.52 2.62C11.1 31.66 9.66 32 8 32c-1.82 0-3.38-.4-4.67-1.2-1.28-.82-2.12-1.85-2.52-3.1-.4-1.26-.6-3.03-.6-5.34v-2h6.33v3.73c0 1.14.08 1.88.26 2.2.17.34.5.5.94.5.45 0 .8-.2 1-.62.23-.42.34-1.04.34-1.86 0-1.8-.2-3-.63-3.55-.43-.56-1.5-1.5-3.18-2.8-1.7-1.3-2.8-2.26-3.36-2.85-.54-.6-1-1.42-1.37-2.47C.18 11.6 0 10.25 0 8.63c0-2.35.25-4.07.76-5.16.52-1.1 1.35-1.93 2.5-2.54C4.38.3 5.75 0 7.37 0c1.77 0 3.27.34 4.5 1 1.26.68 2.1 1.52 2.48 2.55.4 1 .62 2.73.62 5.18v1.2"/>
  <path d="M57.4 4.48C57.56 2.05 55.64 0 53.23 0h-5.77c-2.3 0-4.18 1.9-4.18 4.2v1.54L34.14 17.6c-.34.43-.03 1.07.52 1.07h2.96l-1.6 6.5c-.12.42.2.83.63.83h2.8l-2.24 5.06c-.2.44.13.94.6.94h17.54c.36 0 .66-.3.66-.67v-5.7zm-8.15 6.2h-3.98c-.36 0-.66-.3-.66-.68v-.04c.03-.35.32-.63.67-.63h3.98c.35 0 .63.27.66.6V10c0 .37-.28.67-.65.67z"/>
  <path d="M34.1 0v6.4h-4.22V32h-7.1V6.4H18.6V0h15.5" />
  <path d="M77.72 0v32h-6.2l-3.7-14.55V32H61.9V0h5.92l3.97 14.4V0h5.92"/>
</svg>
